<?xml version="1.0" encoding="utf-8"?>
<!-- Generator: Adobe Illustrator 23.0.3, SVG Export Plug-In . SVG Version: 6.00 Build 0)  -->
<svg version="1.1" id="Capa_1" xmlns="http://www.w3.org/2000/svg" xmlns:xlink="http://www.w3.org/1999/xlink" x="0px" y="0px"
	 viewBox="0 0 610.2 574.3" style="enable-background:new 0 0 610.2 574.3;" xml:space="preserve">
<style type="text/css">
	.st0{fill:#D7D9CC;}
	.st1{fill:#F3F5E6;}
	.st2{fill:#BDBFB4;}
	.st3{fill:#A8503C;}
	.st4{fill:#E3B098;}
	.st5{fill:#FBC4AC;}
	.st6{fill:#3B484A;}
	.st7{fill:#F98084;}
	.st8{fill:#DD9F80;}
	.st9{fill:#C68D6D;}
	.st10{fill:#C6C5CA;}
	.st11{fill:#ACABB1;}
	.st12{fill:#D8D7DA;}
	.st13{fill:#F30051;}
	.st14{font-family:'Multicolore';}
	.st15{font-size:122.1431px;}
</style>
<path class="st0" d="M115.7,396.6c-51.6,0-93.5,41.9-93.5,93.5V512h52.3l7.9-6.4l7.5,6.4h40.5l83.9-115.4H115.7z"/>
<path class="st1" d="M256.7,396.6h-42.5l-42.7,34.9L130.4,465v47h152.1l7.7-5.9l7.7,5.9h52.3v-21.9
	C350.2,438.5,308.4,396.6,256.7,396.6z"/>
<path class="st2" d="M74.5,512v-46.2c0-4.3,3.5-7.7,7.7-7.7s7.7,3.5,7.7,7.7V512H74.5z"/>
<g>
	<path class="st0" d="M290.2,458.1c-4.3,0-7.7,3.5-7.7,7.7V512h15.5v-46.2C297.9,461.6,294.4,458.1,290.2,458.1z"/>
	<circle class="st0" cx="166.2" cy="478.5" r="9.5"/>
	<circle class="st0" cx="245.3" cy="478.5" r="9.5"/>
</g>
<polygon class="st3" points="354.2,228.7 186.2,213.3 18.1,228.7 18.1,299.9 354.2,299.9 "/>
<circle class="st4" cx="337" cy="300.3" r="35.3"/>
<ellipse class="st5" cx="186.2" cy="289.1" rx="153.9" ry="143.1"/>
<path class="st4" d="M63.2,289.1c0-74.2,60.7-135.1,138.4-142.3c-5.1-0.5-10.2-0.7-15.5-0.7c-76.1,0-139.3,51.4-151.7,118.9
	C15.4,265.4,0,281,0,300.3c0,19.5,15.8,35.3,35.3,35.3c1.9,0,3.6-0.2,5.1-0.5c20.6,56.4,78.1,97,145.7,97c5.2,0,10.4-0.2,15.5-0.7
	C123.9,424.3,63.2,363.3,63.2,289.1z"/>
<path class="st1" d="M306.4,0c-26.8,0-49.8,16-60.1,38.9C236,16,213,0,186.2,0c-26.8,0-49.8,16-60.1,38.9C115.7,16,92.7,0,65.9,0
	C29.5,0,0,29.5,0,65.9c0,17.6,6.9,33.6,18.1,45.4l0,0v86.6l168,15.4l168-15.4v-86.6l0,0c11.2-11.8,18.1-27.8,18.1-45.4
	C372.4,29.5,342.8,0,306.4,0z"/>
<path class="st0" d="M49,197.9v-86.6h0C37.8,99.5,30.9,83.5,30.9,65.9c0-31.1,21.5-57.1,50.5-64.1C76.4,0.6,71.3,0,65.9,0
	C29.5,0,0,29.5,0,65.9c0,17.6,6.9,33.6,18.1,45.4h0v86.6l168,15.4l15.5-1.4L49,197.9z"/>
<path class="st3" d="M186.2,345.4c17.4,21.7,43,12.7,56.6,5.6c3.3-1.7,3.5-6.3,0.5-8.4c-7.8-5.4-12.3-17.3-18.7-23.3
	c-9.9-9.3-27.1-14.9-38.4-4.7c-11.3-10.2-28.4-4.6-38.4,4.7c-6.4,6-10.9,17.8-18.7,23.3c-3,2.1-2.8,6.7,0.5,8.4
	C143.1,358.1,168.8,367.1,186.2,345.4z"/>
<path class="st6" d="M271,307.1c-4.3,0-7.7-3.5-7.7-7.7v-16.5c0-4.3,3.5-7.7,7.7-7.7s7.7,3.5,7.7,7.7v16.5
	C278.7,303.7,275.3,307.1,271,307.1z"/>
<path class="st7" d="M282.2,331.4h-22.5c-4.3,0-7.7-3.5-7.7-7.7s3.5-7.7,7.7-7.7h22.5c4.3,0,7.7,3.5,7.7,7.7
	C290,327.9,286.5,331.4,282.2,331.4z"/>
<path class="st6" d="M101.4,307.1c-4.3,0-7.7-3.5-7.7-7.7v-16.5c0-4.3,3.5-7.7,7.7-7.7s7.7,3.5,7.7,7.7v16.5
	C109.1,303.7,105.6,307.1,101.4,307.1z"/>
<path class="st7" d="M112.6,331.4H90.1c-4.3,0-7.7-3.5-7.7-7.7s3.5-7.7,7.7-7.7h22.5c4.3,0,7.7,3.5,7.7,7.7
	C120.3,327.9,116.9,331.4,112.6,331.4z"/>
<g>
	<path class="st0" d="M186.2,175.3c-4.3,0-7.7-3.5-7.7-7.7V81.3c0-4.3,3.5-7.7,7.7-7.7c4.3,0,7.7,3.5,7.7,7.7v86.2
		C193.9,171.8,190.4,175.3,186.2,175.3z"/>
	<path class="st0" d="M108.7,175.3c-4.3,0-7.7-3.5-7.7-7.7V81.3c0-4.3,3.5-7.7,7.7-7.7s7.7,3.5,7.7,7.7v86.2
		C116.5,171.8,113,175.3,108.7,175.3z"/>
	<path class="st0" d="M263.6,175.3c-4.3,0-7.7-3.5-7.7-7.7V81.3c0-4.3,3.5-7.7,7.7-7.7s7.7,3.5,7.7,7.7v86.2
		C271.4,171.8,267.9,175.3,263.6,175.3z"/>
	<rect x="18.1" y="197.9" class="st0" width="336.1" height="30.8"/>
</g>
<rect x="18.1" y="197.9" class="st2" width="30.9" height="30.8"/>
<g>
	<path class="st8" d="M505.6,302.1L294.8,534.4c-6.4,7.1-6.1,17.9,0.6,24.7c6.7,6.7,17.6,7,24.7,0.6l232.3-210.8
		c8.7-7.9,9-21.4,0.7-29.6l-17.8-17.8C527,293.1,513.5,293.4,505.6,302.1z"/>
	<path class="st9" d="M446.2,445.1l96-87.1c-6.4-9.2-13.7-20.5-17.8-28c-6.3-11.6,10.9-28.6,10.9-28.6c-8.3-8.3-21.8-7.9-29.6,0.7
		L392.5,426.7c7.6,4.7,16.7,8.8,25.9,9.3C428.1,436.4,438.1,440.6,446.2,445.1z"/>
	<path class="st10" d="M516.4,342c0,0-63.2-70.8-138.3-112.3c-7.8-4.3-15.6,5.5-9.8,12.2c23.2,26.4,58,62.9,73,96.1
		c3.6,8,1.8,17.5-4.4,23.7l-4.7,4.7c-6.4,6.4-6.4,16.9,0,23.3l35.2,35.2c6.5,6.5,17,6.4,23.4-0.1l6.6-6.7c6.6-6.8,17-8.2,25.1-3.3
		c8.6,5.2,20.4,15.2,34.5,34.8c7.5,10.4,18.2,3.8,18.3,3.7c6-3.6,8.2-11.1,5.2-17.3C558.7,391.3,516.4,342,516.4,342z"/>
	<path class="st11" d="M516.4,342c0,0-25.9-29-64.3-60.8c-2.7,12.1-7.9,27.3-18.2,42.6c2.8,4.8,5.3,9.5,7.4,14.1
		c3.6,8,1.8,17.5-4.4,23.7l-4.7,4.7c-6.4,6.4-6.4,16.9,0,23.3l35.2,35.2c6.5,6.5,17,6.4,23.4-0.1l6.6-6.7c6.6-6.8,17-8.2,25.1-3.3
		c3.1,1.8,6.6,4.3,10.4,7.6c9.5-6.7,19.6-13.1,29.6-18C541.1,370.8,516.4,342,516.4,342z"/>
	<path class="st12" d="M544.5,378.1c-15.2-21-28.2-36-28.2-36s-13.7-15.4-36-36c-10.1,26-43.5,55.7-43.5,55.7l-4.7,4.7
		c-6.4,6.4-6.4,16.9,0,23.3l35.2,35.2c6.5,6.5,17,6.4,23.4-0.1C490.7,424.7,519.9,392.3,544.5,378.1z"/>
</g>
<text transform="matrix(1 0 0 1 364.184 187.4403)" class="st13 st14 st15">404</text>
</svg>
