<?xml version="1.0" encoding="utf-8"?>
<!-- Generator: Adobe Illustrator 23.0.3, SVG Export Plug-In . SVG Version: 6.00 Build 0)  -->
<svg version="1.1" id="Capa_1" xmlns="http://www.w3.org/2000/svg" xmlns:xlink="http://www.w3.org/1999/xlink" x="0px" y="0px"
	 viewBox="0 0 512 512" style="enable-background:new 0 0 512 512;" xml:space="preserve">
<style type="text/css">
	.st0{fill:#F0F0EF;}
	.st1{fill:#FA9EB0;}
	.st2{fill:#80E2FF;}
	.st3{fill:#E3E2E1;}
	.st4{fill:#F30051;}
	.st5{fill:#55C2E3;}
</style>
<rect x="31.4" y="120.5" class="st0" width="449.2" height="364.1"/>
<g>
	<polygon class="st1" points="206.7,5.3 108,5.3 58.7,67.9 108,120.5 157.3,153.8 206.7,120.5 256,79.5 	"/>
	<polygon class="st1" points="404,5.3 305.3,5.3 256,79.5 305.3,120.5 354.7,153.8 404,120.5 453.3,67.9 	"/>
</g>
<polygon class="st2" points="206.7,5.3 206.7,120.5 256,153.8 305.3,120.5 305.3,5.3 "/>
<path class="st3" d="M31.4,213.3c8.5,3.1,17.7,4.8,27.2,4.8c18.6,0,35.7-6.4,49.3-17c13.6,10.6,30.7,17,49.3,17s35.7-6.4,49.3-17
	c13.6,10.6,30.7,17,49.3,17c18.6,0,35.7-6.4,49.3-17c13.6,10.7,30.7,17,49.3,17c18.6,0,35.7-6.4,49.3-17c13.6,10.6,30.7,17,49.3,17
	c9.6,0,18.7-1.7,27.2-4.8v-92.8H31.4V213.3z"/>
<path class="st4" d="M108,120.5v17.3c0,27.2,22.1,49.3,49.3,49.3l0,0c27.2,0,49.3-22.1,49.3-49.3v-17.3
	C206.7,120.5,108,120.5,108,120.5z"/>
<path class="st2" d="M27.9,5.3c-10.2,0-18.5,8.3-18.5,18.5v96.7l49.3,33.3l49.3-33.3V5.3H27.9z"/>
<path class="st4" d="M404,120.5v17.3c0,27.2-22.1,49.3-49.3,49.3l0,0c-27.2,0-49.3-22.1-49.3-49.3v-17.3
	C305.3,120.5,404,120.5,404,120.5z"/>
<path class="st2" d="M484.1,5.3H404v115.2l49.3,33.3l49.3-33.3V23.8C502.7,13.6,494.4,5.3,484.1,5.3z"/>
<path class="st4" d="M207.3,238.3H102.2c-11.8,0-21.4,9.6-21.4,21.4v223.8h148V259.8C228.8,247.9,219.1,238.3,207.3,238.3z"/>
<rect x="113.9" y="271.5" class="st1" width="81.7" height="212.1"/>
<path class="st2" d="M402.8,238.3H301.1c-10,0-18.2,8.1-18.2,18.2v86h138v-86C420.9,246.5,412.8,238.3,402.8,238.3z"/>
<path class="st5" d="M332,238.3h-30.9c-10,0-18.2,8.1-18.2,18.2v86h30.9v-86C313.8,246.5,322,238.3,332,238.3z"/>
<path class="st1" d="M420.9,324.1h-138c-10,0-18.1,8.1-18.1,18.1v18.8H439v-18.8C439,332.2,430.9,324.1,420.9,324.1z"/>
<path class="st4" d="M313.8,324.1h-30.9c-10,0-18.1,8.1-18.1,18.1v18.8h30.9v-18.8C295.8,332.2,303.9,324.1,313.8,324.1z"/>
<g>
	<path class="st5" d="M206.7,120.5v17.3c0,27.2,22.1,49.3,49.3,49.3l0,0c27.2,0,49.3-22.1,49.3-49.3v-17.3
		C305.3,120.5,206.7,120.5,206.7,120.5z"/>
	<path class="st5" d="M9.3,120.5v17.3c0,27.2,22.1,49.3,49.3,49.3l0,0c27.2,0,49.3-22.1,49.3-49.3v-17.3
		C108,120.5,9.3,120.5,9.3,120.5z"/>
	<path class="st5" d="M502.7,120.5v17.3c0,27.2-22.1,49.3-49.3,49.3l0,0c-27.2,0-49.3-22.1-49.3-49.3v-17.3
		C404,120.5,502.7,120.5,502.7,120.5z"/>
</g>
<path class="st2" d="M480.6,460.3H31.4C14.1,460.3,0,474.4,0,491.8v15h512v-15C512,474.4,497.9,460.3,480.6,460.3z"/>
<path class="st5" d="M62.3,460.3H31.4C14.1,460.3,0,474.4,0,491.8v15h30.9v-15C30.9,474.4,45,460.3,62.3,460.3z"/>
</svg>
