<svg height="512pt" viewBox="-48 0 512 512" width="512pt" xmlns="http://www.w3.org/2000/svg"><path d="m55.164062 95.335938h305.269532c9.019531 0 17.375 3.015624 24.101562 8.089843v-88.425781h-329.371094c-22.183593 0-40.164062 17.984375-40.164062 40.167969 0 22.179687 17.984375 40.167969 40.164062 40.167969zm0 0" fill="#e8efef"/><path d="m207.800781 15v80.335938h152.632813c9.019531 0 17.375 3.015624 24.101562 8.089843v-88.425781zm0 0" fill="#d5eded"/><path d="m399.53125 30h1.070312c8.285157 0 15-6.714844 15-15s-6.714843-15-15-15h-345.4375c-30.417968 0-55.164062 24.746094-55.164062 55.167969v401.667969c0 30.417968 24.746094 55.164062 55.164062 55.164062h305.269532c30.417968 0 55.167968-24.746094 55.167968-55.164062v-321.335938c0-15.152344-6.144531-28.894531-16.066406-38.875v-66.625zm-344.367188 0h314.367188v51.101562c-2.960938-.496093-6-.765624-9.101562-.765624h-305.265626c-13.875 0-25.164062-11.289063-25.164062-25.167969 0-13.878907 11.289062-25.167969 25.164062-25.167969zm0 0" fill="#ff4949"/><path d="m399.53125 30h1.070312c8.285157 0 15-6.714844 15-15s-6.714843-15-15-15h-192.800781v30h161.730469v51.101562c-2.960938-.496093-6-.765624-9.101562-.765624h-152.628907v431.664062h152.632813c30.417968 0 55.167968-24.746094 55.167968-55.164062v-321.335938c0-15.152344-6.144531-28.894531-16.066406-38.875v-66.625zm0 0" fill="#f30051"/><path d="m264.03125 191.191406c-1.390625 0-2.789062.042969-4.1875.128906-13.386719-14.300781-32.25-22.621093-52.042969-22.621093s-38.65625 8.320312-52.039062 22.621093c-1.402344-.085937-2.800781-.128906-4.191407-.128906-39.28125 0-71.234374 31.957032-71.234374 71.234375 0 34.132813 24.132812 62.734375 56.234374 69.644531v76.5625c0 8.285157 6.714844 15 15 15h112.464844c8.28125 0 15-6.714843 15-15v-76.5625c32.097656-6.90625 56.234375-35.511718 56.234375-69.644531 0-39.277343-31.957031-71.234375-71.238281-71.234375zm0 0" fill="#e8efef"/><path d="m264.03125 423.632812c8.285156 0 15-6.714843 15-15v-76.5625c32.101562-6.90625 56.234375-35.511718 56.234375-69.644531 0-39.277343-31.953125-71.234375-71.234375-71.234375-1.390625 0-2.789062.042969-4.1875.128906-13.386719-14.300781-32.25-22.621093-52.042969-22.621093v254.933593zm0 0" fill="#d5eded"/><path d="m136.550781 345.433594h142.480469v30h-142.480469zm0 0" fill="#c5e1e6"/><path d="m207.800781 345.433594h71.230469v30h-71.230469zm0 0" fill="#acd9dd"/></svg>