<svg height="512pt" viewBox="-73 0 512 512" width="512pt" xmlns="http://www.w3.org/2000/svg"><path d="m83.222656 276.992188c0 22.984374-18.628906 41.613281-41.609375 41.613281-22.984375 0-41.613281-18.628907-41.613281-41.613281 0-22.980469 18.628906-41.609376 41.613281-41.609376 22.980469 0 41.609375 18.628907 41.609375 41.609376zm0 0" fill="#ffb39d"/><path d="m365.445312 276.992188c0 22.984374-18.632812 41.613281-41.613281 41.613281s-41.613281-18.628907-41.613281-41.613281c0-22.980469 18.632812-41.609376 41.613281-41.609376s41.613281 18.628907 41.613281 41.609376zm0 0" fill="#ffcbbe"/><path d="m295.792969 512h-226.144531c-26.359376 0-47.726563-21.367188-47.726563-47.730469v-27.183593c0-42.222657 34.226563-76.453126 76.449219-76.453126h168.703125c42.222656 0 76.449219 34.230469 76.449219 76.453126v27.183593c0 26.363281-21.367188 47.730469-47.730469 47.730469zm0 0" fill="#91d4f2"/><path d="m231.152344 360.632812h-132.78125c-42.222656 0-76.449219 34.230469-76.449219 76.453126v27.183593c0 26.359375 21.367187 47.730469 47.726563 47.730469h201.078124c.324219-21.289062.324219-49.613281-.964843-77.769531-1.214844-26.480469-19.535157-52.960938-38.609375-73.597657zm0 0" fill="#59c2e8"/><path d="m217.382812 408.558594-34.039062-47.925782h-84.972656c-42.222656 0-76.449219 34.230469-76.449219 76.453126v27.183593c0 26.359375 21.367187 47.730469 47.726563 47.730469h157.851562v-71.722656c0-11.367188-3.535156-22.453125-10.117188-31.71875zm0 0" fill="#c2eafb"/><path d="m211.242188 399.042969h-57.039063c-60.136719 0-108.886719-48.75-108.886719-108.882813v-80.628906c0-75.886719 61.519532-137.40625 137.40625-137.40625 75.886719 0 137.402344 61.519531 137.402344 137.40625v80.628906c0 60.132813-48.746094 108.882813-108.882812 108.882813zm0 0" fill="#ffddcf"/><path d="m109.570312 226.371094c-10.699218-90.972656 76.570313-139.398438 101.550782-151.308594-9.160156-1.921875-18.664063-2.9375-28.398438-2.9375-75.886718 0-137.402344 61.519531-137.402344 137.40625v80.628906c0 57.472656 44.542969 104.546875 100.984376 108.601563-46.648438-25.761719-26.703126-87.09375-36.734376-172.390625zm0 0" fill="#ffcbbe"/><path d="m125.132812 309.488281c0-9.367187-9.535156-16.960937-21.296874-16.960937-11.761719 0-21.292969 7.59375-21.292969 16.960937 0 9.367188 9.53125 16.957031 21.292969 16.957031 11.761718 0 21.296874-7.589843 21.296874-16.957031zm0 0" fill="#ff899f"/><path d="m282.902344 309.488281c0-9.367187-9.535156-16.960937-21.296875-16.960937-11.757813 0-21.292969 7.59375-21.292969 16.960937 0 9.367188 9.535156 16.957031 21.292969 16.957031 11.761719 0 21.296875-7.589843 21.296875-16.957031zm0 0" fill="#ff899f"/><path d="m188.007812 291.160156c-1.734374 2.542969-4.261718 2.851563-5.285156 2.851563-1.027344 0-3.59375-.277344-5.285156-2.851563-2.347656-3.574218-7.144531-4.566406-10.714844-2.21875-3.574218 2.34375-4.566406 7.144532-2.21875 10.714844 4.042969 6.15625 10.855469 9.832031 18.21875 9.832031 7.367188 0 14.175782-3.675781 18.21875-9.832031 2.347656-3.570312 1.355469-8.371094-2.21875-10.714844-1.308594-.859375-7.101562-3.089844-10.714844 2.21875zm0 0" fill="#454545"/><path d="m121.417969 294.785156c-.964844-.808594-1.925781-1.023437-2.464844-1.023437s-1.574219.132812-2.460937 1.023437c-3.023438 3.019532-7.921876 3.019532-10.945313 0-3.019531-3.023437-3.019531-7.921875 0-10.945312 3.582031-3.582032 8.34375-5.554688 13.40625-5.554688 5.066406 0 9.828125 1.972656 13.40625 5.554688 3.023437 3.023437 3.023437 7.921875 0 10.945312-1.511719 1.507813-6.058594 4.085938-10.941406 0zm0 0" fill="#454545"/><path d="m248.953125 294.785156c-.960937-.808594-1.921875-1.023437-2.460937-1.023437-.539063 0-1.574219.132812-2.464844 1.023437-3.019532 3.019532-7.921875 3.019532-10.941406 0-3.023438-3.023437-3.023438-7.921875 0-10.945312 3.578124-3.582032 8.339843-5.554688 13.40625-5.554688 5.0625 0 9.824218 1.972656 13.40625 5.554688 3.019531 3.023437 3.019531 7.921875 0 10.945312-1.511719 1.507813-6.058594 4.085938-10.945313 0zm0 0" fill="#454545"/><path d="m45.316406 217.996094s-11.253906 17.390625-9.671875 41.164062c1.179688 17.644532 21.34375 27.015625 35.808594 16.84375 19.128906-13.453125 43.460937-37.847656 53.679687-78.699218-.691406-1.867188-79.816406 20.691406-79.816406 20.691406zm0 0" fill="#e7896e"/><path d="m320.125 217.996094s11.257812 17.390625 9.671875 41.164062c-1.175781 17.644532-21.339844 27.015625-35.804687 16.84375-19.132813-13.453125-43.460938-37.847656-53.679688-78.699218.691406-1.867188 79.8125 20.691406 79.8125 20.691406zm0 0" fill="#e7896e"/><path d="m275.550781 31.144531c-8.246093 2.207031-17.023437.074219-23.339843-5.667969-11.609376-10.550781-34.253907-25.476562-69.488282-25.476562s-57.878906 14.925781-69.488281 25.476562c-6.316406 5.742188-15.09375 7.875-23.339844 5.667969-7.460937-1.996093-14.4375-3.121093-20.917969-3.589843-29.449218-2.128907-50.824218 27.714843-39.128906 54.824218 16.429688 38.085938 15.46875 70.417969 15.46875 70.417969l137.40625 35.753906 137.402344-35.753906s-.960938-32.332031 15.472656-70.414063c11.695313-27.113281-9.679687-56.953124-39.128906-54.828124-6.480469.46875-13.460938 1.59375-20.917969 3.589843zm0 0" fill="#91d4f2"/><g fill="#59c2e8"><path d="m108.375 169.203125c-6.410156-25.683594-12.441406-39.152344-28.0625-71.199219-23.109375-47.414062.722656-68.875.722656-68.875-4.1875-.785156-8.214844-1.296875-12.058594-1.574218-29.449218-2.128907-50.824218 27.714843-39.128906 54.824218 16.433594 38.085938 15.472656 70.417969 15.472656 70.417969zm0 0"/><path d="m119.984375 174.367188s-4.734375-47.003907-14.695313-79.238282c-2.660156-8.609375 2.335938-17.710937 11.007813-20.15625 6.386719-1.800781 13.207031.511719 17.207031 5.800782 11.425782 15.109374 32.9375 48.992187 36.328125 93.59375.941407.390624-49.847656 0-49.847656 0zm0 0"/><path d="m245.460938 174.367188s4.734374-47.003907 14.695312-79.238282c2.660156-8.609375-2.335938-17.710937-11.007812-20.15625-6.386719-1.800781-13.203126.511719-17.207032 5.800782-11.425781 15.109374-32.9375 48.992187-36.328125 93.59375-.941406.390624 49.847657 0 49.847657 0zm0 0"/></g><path d="m45.316406 152.796875h274.808594v65.199219h-274.808594zm0 0" fill="#c2eafb"/><path d="m45.316406 152.796875v65.199219h73.636719c-6.464844-31.746094-10.304687-49.75-15.140625-65.199219zm0 0" fill="#91d4f2"/><path d="m197.984375 432.179688c0 8.429687-6.832031 15.265624-15.261719 15.265624-8.429687 0-15.261718-6.835937-15.261718-15.265624 0-8.425782 6.832031-15.261719 15.261718-15.261719 8.429688 0 15.261719 6.835937 15.261719 15.261719zm0 0" fill="#889cb0"/><path d="m197.984375 479.148438c0 8.429687-6.832031 15.265624-15.261719 15.265624-8.429687 0-15.261718-6.835937-15.261718-15.265624 0-8.429688 6.832031-15.261719 15.261718-15.261719 8.429688 0 15.261719 6.832031 15.261719 15.261719zm0 0" fill="#889cb0"/></svg>