<?xml version="1.0" encoding="utf-8"?>
<!-- Generator: Adobe Illustrator 23.0.3, SVG Export Plug-In . SVG Version: 6.00 Build 0)  -->
<svg version="1.1" id="salt_x26_pepper" xmlns="http://www.w3.org/2000/svg" xmlns:xlink="http://www.w3.org/1999/xlink" x="0px"
	 y="0px" viewBox="0 0 512 512" style="enable-background:new 0 0 512 512;" xml:space="preserve">
<style type="text/css">
	.st0{fill:#EE1C26;}
</style>
<path class="st0" d="M343.5,157.5c-0.4-4.4-3.9-7.8-8.2-8.3v-18.8c5.1,0,9.3-4.2,9.3-9.3V95c0-42-34.2-76.2-76.2-76.2h-33.6
	c-42,0-76.2,34.2-76.2,76.2v26.1c0,5.1,4.2,9.3,9.3,9.3V149h-3.6c-4.8,0-8.8,3.7-9.3,8.5l-8.3,93l-17.1,191.9
	c-1.2,13,3.2,25.9,12,35.5s21.3,15.1,34.3,15.1h146.4c13,0,25.5-5.5,34.3-15.1s13.2-22.6,12-35.5l-17.1-191.9L343.5,157.5z
	 M177.2,95c0-31.7,25.8-57.6,57.6-57.6h33.6c31.7,0,57.6,25.8,57.6,57.6v16.8H177.2V95z M186.5,130.5h130.2v18.6H186.5V130.5z
	 M172.8,167.7h152.9l6.6,74.4H166.2L172.8,167.7z M343.1,465.4c-5.4,5.9-12.7,9.1-20.6,9.1H176c-7.9,0-15.3-3.2-20.6-9.1
	c-5.4-5.9-7.9-13.4-7.2-21.3l16.3-183.5H334l16.3,183.5C351,452,348.4,459.6,343.1,465.4z"/>
<circle class="st0" cx="279.5" cy="65.4" r="9.3"/>
<circle class="st0" cx="223.7" cy="65.4" r="9.3"/>
<ellipse transform="matrix(0.1735 -0.9848 0.9848 0.1735 143.5385 301.837)" class="st0" cx="251.6" cy="65.4" rx="9.3" ry="9.3"/>
<g>
	<path class="st0" d="M279.4,344.6c5.8,0,10.5-4.8,10.5-10.7c0-5.9-4.7-10.7-10.5-10.7s-10.5,4.8-10.5,10.7
		C268.9,339.8,273.6,344.6,279.4,344.6z"/>
	<path class="st0" d="M275.6,351.5c-4.7,0-9.1,4.2-17.8,7.4v-34c0-1.8-1.6-3.4-3.5-3.4h-10.8c-1.5,0-2.7,0.7-3.9,1.9l-26.2,31.2
		c-2.8-1-7.7-2.4-13.8-3c-11-1.1-19.5,3.3-24.5,8.9c-11.2,12.7-3.1,30,12.6,30c10.3,0,17-4.3,26.8-15.2c2.6-2.9,5.1-6.1,5.1-6.1l0,0
		c7.3,2.2,13.8,3.2,23.8,3.2v13.9c0,2,1.6,3.6,3.5,3.6h7.3c1.9,0,3.5-1.6,3.5-3.6c0,0,0-7.1,0-16.4c5-1.6,9.6-3.5,14.6-6.2v29.7
		c-2.7,1.9-10.4,7.3-10.4,7.3c-5.7,4.1-4.2,7.6-1.5,9.9c2.7,2.4,6.3,3.3,10.2,3.3c8.6,0,15.6-7.5,15.6-19.3
		c13.9-8.6,30.3-19.9,29.6-34.2c0-5-4.1-8.8-8.7-8.8c-4.8,0-8.6,3.9-8.6,8.8c0,2.8,1.3,5.3,3.4,7c-2.5,5.9-8.3,11.1-15.6,16.5v-28.6
		c0-2-1.7-3.6-3.7-3.6h-7V351.5z M205.4,364l-5.3,5.8c-4.2,4.5-9,10.6-14,10.6c-2,0-3.5-1-4.4-2.5c-1.5-2.5-1.4-6.4,0.6-9.3
		c4.3-6.1,10.5-7.1,17.1-6.1C202.3,362.9,203.9,363.4,205.4,364z M243.5,340.2v20.9c-5.2,0.1-10.2-0.6-15.6-1.9L243.5,340.2z"/>
</g>
</svg>
