<?xml version="1.0" encoding="utf-8"?>
<!-- Generator: Adobe Illustrator 23.0.3, SVG Export Plug-In . SVG Version: 6.00 Build 0)  -->
<svg version="1.1" id="Capa_1" xmlns="http://www.w3.org/2000/svg" xmlns:xlink="http://www.w3.org/1999/xlink" x="0px" y="0px"
	 viewBox="0 0 512 512" style="enable-background:new 0 0 512 512;" xml:space="preserve">
<style type="text/css">
	.st0{fill:#EAEAEA;}
	.st1{fill:#D8D7DA;}
	.st2{fill:#D7F3FF;}
	.st3{fill:#BDEBFF;}
	.st4{fill:#FF4949;}
	.st5{fill:#F30051;}
	.st6{fill:#C6C5CA;}
	.st7{fill:#FFFFFF;}
	.st8{fill:#DCFFFF;}
	.st9{fill:#EE1C26;}
</style>
<circle class="st0" cx="256" cy="124.1" r="119.6"/>
<path class="st1" d="M256,4.5c-66.1,0-119.6,53.6-119.6,119.6S189.9,243.7,256,243.7c3.3,0,6.5-0.1,9.7-0.4v-90.3
	C227.3,90.2,243.5,37,262.5,4.7C260.3,4.6,258.2,4.5,256,4.5z"/>
<path class="st2" d="M372.6,144.8H139.4L97.2,413.2c-7.8,49.5,30.5,94.3,80.7,94.3h156.3c50.1,0,88.4-44.8,80.7-94.3L372.6,144.8z"
	/>
<path class="st3" d="M139.4,144.8L97.2,413.2c-7.8,49.5,30.5,94.3,80.7,94.3h29c-22.6-59.8-6.8-134.8-1.7-204.3
	c7.5-100.9,68.5-122.9,68.5-122.9v-35.4L139.4,144.8L139.4,144.8z"/>
<path class="st4" d="M373.3,180.3H138.7c-18.8,0-34.3-15.4-34.3-34.3l0,0c0-18.8,15.4-34.3,34.3-34.3h234.6
	c18.8,0,34.3,15.4,34.3,34.3l0,0C407.6,164.9,392.2,180.3,373.3,180.3z"/>
<path class="st5" d="M191.7,146L191.7,146c0-18.8,15.4-34.3,34.3-34.3h-87.3c-18.8,0-34.3,15.4-34.3,34.3l0,0
	c0,18.8,15.4,34.3,34.3,34.3H226C207.2,180.3,191.7,164.9,191.7,146z"/>
<path class="st1" d="M256,4.5c-11.3,0-22.2,1.6-32.5,4.5c2.2,16,15.9,28.4,32.5,28.4S286.4,25,288.5,9C278.2,6.1,267.3,4.5,256,4.5z
	"/>
<path class="st6" d="M144.8,80c4.5,2.3,9.6,3.6,15,3.6c18.1,0,32.9-14.7,32.9-32.9c0-8.5-3.3-16.3-8.6-22.2
	C166.6,41.7,152.9,59.5,144.8,80z"/>
<path class="st1" d="M367.2,80c-8.1-20.5-21.8-38.3-39.2-51.4c-5.4,5.8-8.6,13.6-8.6,22.2c0,18.1,14.7,32.9,32.9,32.9
	C357.7,83.6,362.7,82.3,367.2,80z"/>
<path class="st7" d="M374.2,419.6l-23.1-147.2l0,0c0,0-7.4-47.1-55-32.1c-6,1.9-12.5,1.1-17.7-2.4c-6.5-4.2-14.2-6.7-22.5-6.7
	c-8.5,0-16.5,2.6-23,7.1c-4.9,3.3-11.1,4.2-16.8,2.6c-49.9-13.8-55.3,31.4-55.3,31.4l-23.1,147.2c-1.8,11.7,1.3,23.1,8.9,32.2
	c7.9,9.4,19.7,14.6,32,14.6h154.7c12.3,0,24.2-5.2,32-14.6C372.9,442.7,376.1,431.3,374.2,419.6z"/>
<path class="st6" d="M256,4.5c-11.3,0-22.2,1.6-32.5,4.5c1.8,13.5,11.9,24.4,24.9,27.5c3.7-12.1,8.8-22.7,14.1-31.8
	C260.3,4.6,258.2,4.5,256,4.5z"/>
<path class="st8" d="M205.2,303.2c1.9-25.2,7.1-45.5,13.9-61.8c-0.9-0.1-1.9-0.3-2.8-0.6c-49.9-13.8-55.3,31.4-55.3,31.4
	l-23.1,147.2c-1.8,11.7,1.3,23.1,8.9,32.2c7.9,9.4,19.7,14.6,32,14.6H197C190.6,415.2,201.1,357.5,205.2,303.2z"/>
<g>
	<path class="st9" d="M299.5,324.6c8,0,14.4-6.6,14.4-14.7c0-8.1-6.4-14.7-14.4-14.7c-8,0-14.4,6.6-14.4,14.7
		C285.1,318,291.5,324.6,299.5,324.6z"/>
	<path class="st9" d="M294.3,334c-6.4,0-12.5,5.8-24.4,10.1v-46.6c0-2.5-2.2-4.7-4.8-4.7h-14.8c-2.1,0-3.7,1-5.3,2.6L209,338.3
		c-3.8-1.4-10.6-3.3-18.9-4.1c-15.1-1.5-26.7,4.5-33.6,12.2c-15.4,17.4-4.2,41.1,17.3,41.1c14.1,0,23.3-5.9,36.7-20.8
		c3.6-4,7-8.4,7-8.4l0,0c10,3,18.9,4.4,32.6,4.4v19.1c0,2.7,2.2,4.9,4.8,4.9h10c2.6,0,4.8-2.2,4.8-4.9c0,0,0-9.7,0-22.5
		c6.9-2.2,13.2-4.8,20-8.5v40.7c-3.7,2.6-14.3,10-14.3,10c-7.8,5.6-5.8,10.4-2.1,13.6c3.7,3.3,8.6,4.5,14,4.5
		c11.8,0,21.4-10.3,21.4-26.5c19.1-11.8,41.5-27.3,40.6-46.9c0-6.9-5.6-12.1-11.9-12.1c-6.6,0-11.8,5.3-11.8,12.1
		c0,3.8,1.8,7.3,4.7,9.6c-3.4,8.1-11.4,15.2-21.4,22.6v-39.2c0-2.7-2.3-4.9-5.1-4.9h-9.6L294.3,334L294.3,334z M198.1,351.2l-7.3,8
		c-5.8,6.2-12.3,14.5-19.2,14.5c-2.7,0-4.8-1.4-6-3.4c-2.1-3.4-1.9-8.8,0.8-12.7c5.9-8.4,14.4-9.7,23.4-8.4
		C193.8,349.7,196,350.3,198.1,351.2z M250.3,318.5v28.6c-7.1,0.1-14-0.8-21.4-2.6L250.3,318.5z"/>
</g>
</svg>
