<?xml version="1.0" encoding="iso-8859-1"?>
<!-- Generator: Adobe Illustrator 19.0.0, SVG Export Plug-In . SVG Version: 6.00 Build 0)  -->
<svg version="1.1" id="Capa_1" xmlns="http://www.w3.org/2000/svg" xmlns:xlink="http://www.w3.org/1999/xlink" x="0px" y="0px"
	 viewBox="0 0 512 512" style="enable-background:new 0 0 512 512;" xml:space="preserve">
<path style="fill:#81D4AE;" d="M135.791,294.702l-6.617-18.432c-5.926-16.508,5.677-34.076,23.186-35.106l0,0
	c12.297-0.723,22.441-9.893,24.398-22.055l0.4-2.483c2.76-17.152,21.108-26.951,36.898-19.706l11.594,5.32
	c8.157,3.743,17.66,3.063,25.202-1.803l30.952-19.97c14.757-9.521,34.521-2.164,39.459,14.69l2.596,8.861
	c3.168,10.812,12.877,18.401,24.135,18.864l11.185,0.46c17.254,0.709,29.143,17.585,24.005,34.071l-12.446,39.93L135.791,294.702z"
	/>
<path style="fill:#5EC08B;" d="M237.631,312.254l-10.419-30.587c-4.654-13.662,6.712-27.439,21.009-25.466l0,0
	c4.989,0.688,10.05-0.591,14.113-3.568l22.64-16.588c8.499-6.227,20.415-4.53,26.837,3.823l8.376,10.893
	c4.235,5.507,11.091,8.329,17.975,7.397l0.571-0.077c17.016-2.302,28.41,17.014,18.163,30.793l-19.824,26.658L237.631,312.254z"/>
<path style="fill:#9B7E73;" d="M207.501,254.262c2.297,13.027-2.979,24.897-7.112,35.977c-6.889,18.466-17.649,33.244-36.548,36.576
	c-9.258,1.633-23.642,0.287-31.509-4.178c-9.96-5.654-12.78-15.297-18.071-19.052c-8.011-5.685-14.386-19.38-16.262-30.015
	c-3.525-19.993,4.03-38.474,14.656-52.226c7.837-10.143,16.169-18.064,29.004-20.327c22.196-3.914,23.797,7.577,38.487,15.795
	C195.602,225.457,204.708,238.422,207.501,254.262z"/>
<path style="fill:#81D4AE;" d="M478.54,63.595c-2.755-1.546-5.741-2.359-8.774-2.513c-3.851-0.195-7.449-1.832-10.18-4.554
	c-4.733-4.717-10.427-8.444-16.954-10.819c-16.811-6.119-35.156-1.858-49.368,9.639c-1.879,1.52-4.313,2.173-6.687,1.721l0,0
	c-12.125-2.291-24.065,7.023-26.669,20.804c-1.339,7.086,0.054,13.971,3.37,19.301c3.324,5.34,5.423,11.329,6.204,17.57
	c1.053,8.418,3.792,16.323,7.991,23.133c3.24,5.255,4.498,11.493,3.255,17.54l-7.101,34.525c-0.758,3.686,1.3,7.371,4.837,8.659
	l15.048,5.477c3.537,1.287,7.482-0.213,9.271-3.524l16.552-30.642c3.033-5.614,8.145-9.755,14.194-11.789
	c16.406-5.518,30.854-19.329,37.793-38.394c0.732-2.012,1.361-4.032,1.89-6.054c0.938-3.583,3.024-6.769,5.87-9.139
	c2.533-2.109,4.767-4.746,6.515-7.862C492.46,84.444,489.301,69.634,478.54,63.595z"/>
<path style="fill:#FBAB5F;" d="M311.501,405.989L311.501,405.989c-15.483-5.635-24.016-22.243-19.582-38.112l46.271-165.593
	c4.942-17.686,23.893-27.423,41.148-21.142l24.724,8.999c17.256,6.281,25.514,25.921,17.932,42.645L350.999,389.38
	C344.196,404.387,326.984,411.624,311.501,405.989z"/>
<path style="opacity:0.1;enable-background:new    ;" d="M358.04,250.477c3.063,0,5.94-1.892,7.048-4.937
	c1.417-3.892-0.59-8.196-4.483-9.613l-28.878-10.511l-4.049,14.489l27.797,10.117C356.322,250.331,357.188,250.477,358.04,250.477z
	 M351.484,325.829c-3.891-1.416-8.196,0.59-9.613,4.483c-1.417,3.892,0.59,8.196,4.483,9.613l23.233,8.456l6.212-13.702
	L351.484,325.829z"/>
<path style="fill:#F1F1F1;" d="M440.189,278.045H71.811c-5.179,0-9.377,4.198-9.377,9.377v172.821
	c0,13.292,10.775,24.067,24.067,24.067h338.998c13.292,0,24.067-10.775,24.067-24.067V287.422
	C449.566,282.243,445.368,278.045,440.189,278.045z"/>
<path style="fill:#BCBCBC;" d="M37.704,363.88h24.73v-25.004H25.562v12.861C25.562,358.444,30.998,363.88,37.704,363.88z"/>
<path style="fill:#4A5058;" d="M6.314,338.876h56.121v-35.728H6.314c-3.487,0-6.314,2.827-6.314,6.314v23.101
	C0,336.049,2.827,338.876,6.314,338.876z"/>
<path style="fill:#BCBCBC;" d="M474.296,363.88h-24.73v-25.004h36.873v12.861C486.438,358.444,481.002,363.88,474.296,363.88z"/>
<path style="fill:#4A5058;" d="M505.686,338.876h-56.121v-35.728h56.121c3.487,0,6.314,2.827,6.314,6.314v23.101
	C512,336.049,509.173,338.876,505.686,338.876z"/>
<path style="fill:#BCBCBC;" d="M62.434,436.24v24.002c0,13.292,10.775,24.067,24.067,24.067h338.998
	c13.292,0,24.067-10.775,24.067-24.067V436.24H62.434z"/>
<g>
	<path style="fill:#F1F1F1;" d="M149.722,166.999c-2.39,0-4.739-1.139-6.192-3.259c-10.909-15.91-10.909-37.288,0-53.198
		c7.43-10.836,7.43-25.396,0-36.231c-2.342-3.416-1.472-8.084,1.944-10.427c3.417-2.342,8.085-1.471,10.427,1.944
		c10.909,15.91,10.909,37.288,0,53.198c-7.43,10.835-7.43,25.396,0,36.231c2.342,3.417,1.472,8.085-1.944,10.427
		C152.661,166.573,151.184,166.999,149.722,166.999z"/>
	<path style="fill:#F1F1F1;" d="M226.161,132.12c-2.39,0-4.739-1.139-6.192-3.259c-10.909-15.91-10.909-37.288,0-53.198
		c7.43-10.836,7.43-25.396,0-36.231c-2.342-3.417-1.472-8.084,1.944-10.427c3.417-2.341,8.085-1.472,10.427,1.944
		c10.909,15.91,10.909,37.288,0,53.198c-7.43,10.835-7.43,25.396,0,36.232c2.342,3.416,1.472,8.084-1.944,10.427
		C229.1,131.694,227.623,132.12,226.161,132.12z"/>
	<path style="fill:#F1F1F1;" d="M310.467,147.851c-2.39,0-4.739-1.139-6.192-3.259c-10.909-15.91-10.909-37.288,0-53.198
		c7.43-10.835,7.43-25.396,0-36.231c-2.342-3.417-1.472-8.085,1.944-10.427c3.417-2.341,8.085-1.472,10.427,1.944
		c10.909,15.91,10.909,37.288,0,53.198c-7.43,10.835-7.43,25.396,0,36.231c2.342,3.416,1.472,8.084-1.944,10.427
		C313.406,147.424,311.929,147.851,310.467,147.851z"/>
</g>
<path style="opacity:0.1;enable-background:new    ;" d="M109.965,460.243V287.422c0-5.179,4.198-9.377,9.377-9.377H71.811
	c-5.179,0-9.377,4.198-9.377,9.377v172.821c0,13.292,10.775,24.067,24.067,24.067h47.531
	C120.741,484.309,109.965,473.534,109.965,460.243z"/>
<rect x="48.06" y="303.15" style="opacity:0.1;enable-background:new    ;" width="14.374" height="60.732"/>
<rect x="449.57" y="303.15" style="opacity:0.1;enable-background:new    ;" width="14.374" height="60.732"/>
<g style="opacity:0.1;">
	<circle cx="171.07" cy="236.02" r="7.494"/>
	<circle cx="128.88" cy="257.24" r="7.494"/>
</g>
<g>
</g>
<g>
</g>
<g>
</g>
<g>
</g>
<g>
</g>
<g>
</g>
<g>
</g>
<g>
</g>
<g>
</g>
<g>
</g>
<g>
</g>
<g>
</g>
<g>
</g>
<g>
</g>
<g>
</g>
</svg>
