<?xml version="1.0" encoding="utf-8"?>
<!-- Generator: Adobe Illustrator 23.0.3, SVG Export Plug-In . SVG Version: 6.00 Build 0)  -->
<svg version="1.1" id="圖層_1" xmlns="http://www.w3.org/2000/svg" xmlns:xlink="http://www.w3.org/1999/xlink" x="0px" y="0px"
	 viewBox="0 0 512 512" style="enable-background:new 0 0 512 512;" xml:space="preserve">
<style type="text/css">
	.st0{fill:#D8D7DA;}
	.st1{fill:#C6C5CA;}
	.st2{fill:#FF4949;}
	.st3{fill:#F30051;}
	.st4{fill:#FFFFFF;}
</style>
<path class="st0" d="M391.6,263.5h-56.2V151.6c0-43.8-35.6-79.4-79.4-79.4s-79.4,35.6-79.4,79.4v111.8h-56.2V151.6
	C120.4,76.8,181.2,16,256,16s135.6,60.8,135.6,135.6V263.5z"/>
<path class="st1" d="M176.6,151.6c0-0.1,0-0.2,0-0.3h-44.8c-3.9,0-7.7,0.2-11.4,0.6v111.6h56.2V151.6z"/>
<path class="st1" d="M391.6,263.5V151.9c-3.8-0.4-7.6-0.6-11.4-0.6h-44.8c0,0.1,0,0.2,0,0.3v111.8H391.6z"/>
<path class="st2" d="M380.2,207H131.8c-31.3,0-56.7,25.4-56.7,56.7v181.6c0,31.3,25.4,56.7,56.7,56.7h248.4
	c31.3,0,56.7-25.4,56.7-56.7V263.7C436.9,232.4,411.5,207,380.2,207z"/>
<path class="st3" d="M130.8,445.3V263.7c0-31.3,25.4-56.7,56.7-56.7h-55.7c-31.3,0-56.7,25.4-56.7,56.7v181.6
	c0,31.3,25.4,56.7,56.7,56.7h55.7C156.1,502,130.8,476.6,130.8,445.3z"/>
<path class="st4" d="M284.4,348v-32.9c0-15.7-12.7-28.4-28.4-28.4s-28.4,12.7-28.4,28.4V348c-8.2,7.6-13.3,18.5-13.3,30.6
	c0,23.1,18.7,41.7,41.7,41.7s41.7-18.7,41.7-41.7C297.7,366.5,292.6,355.7,284.4,348z"/>
</svg>
