<?xml version="1.0" encoding="utf-8"?>
<!-- Generator: Adobe Illustrator 23.0.3, SVG Export Plug-In . SVG Version: 6.00 Build 0)  -->
<svg version="1.1" id="圖層_1" xmlns="http://www.w3.org/2000/svg" xmlns:xlink="http://www.w3.org/1999/xlink" x="0px" y="0px"
	 viewBox="0 0 511 511" style="enable-background:new 0 0 511 511;" xml:space="preserve">
<style type="text/css">
	.st0{fill:#F30051;}
	.st1{fill:#F0F0EF;}
	.st2{fill:#E3E2E1;}
	.st3{fill:#495059;}
	.st4{fill:#EB8D9A;}
	.st5{fill:#FF4949;}
</style>
<path class="st0" d="M418.1,468.7h-88.7V38.8h88.7c11.1,0,20.1,9,20.1,20.1v389.7C438.2,459.7,429.2,468.7,418.1,468.7z"/>
<path class="st1" d="M379.5,468.7H68c-11.1,0-20.1-9-20.1-20.1V38.8h351.7v409.8C399.6,459.7,390.6,468.7,379.5,468.7z"/>
<path class="st2" d="M47.9,38.8v409.8c0,11.1,9,20.1,20.1,20.1h194.9C145.5,390,130.3,156.2,133.5,38.8H47.9z"/>
<path class="st3" d="M343.5,263.3H104c-4.1,0-7.5-3.4-7.5-7.5s3.3-7.5,7.5-7.5h239.5c4.1,0,7.5,3.4,7.5,7.5S347.7,263.3,343.5,263.3
	z"/>
<path class="st3" d="M343.5,319.8H104c-4.1,0-7.5-3.3-7.5-7.5c0-4.1,3.3-7.5,7.5-7.5h239.5c4.1,0,7.5,3.4,7.5,7.5
	C351,316.4,347.7,319.8,343.5,319.8z"/>
<path class="st3" d="M343.5,376.2H104c-4.1,0-7.5-3.4-7.5-7.5c0-4.1,3.3-7.5,7.5-7.5h239.5c4.1,0,7.5,3.3,7.5,7.5
	C351,372.9,347.7,376.2,343.5,376.2z"/>
<path class="st4" d="M163.5,188.1c0-15.5-15.8-28-35.2-28s-35.2,12.6-35.2,28s15.8,28,35.2,28S163.5,203.6,163.5,188.1z"/>
<path class="st4" d="M354.4,188.1c0-15.5-15.8-28-35.2-28c-19.5,0-35.2,12.6-35.2,28s15.8,28,35.2,28
	C338.7,216.2,354.4,203.6,354.4,188.1z"/>
<g>
	<path class="st3" d="M134.2,162.5c-4.1,0-7.5-3.3-7.5-7.5v-15.1c0-4.1,3.4-7.5,7.5-7.5s7.5,3.4,7.5,7.5V155
		C141.7,159.2,138.3,162.5,134.2,162.5z"/>
	<path class="st3" d="M223.8,192.1c-14.1,0-25.5-11.4-25.5-25.5V148c0-3.8,3.1-7,7-7h37.1c3.8,0,7,3.1,7,7v18.5
		C249.3,180.7,237.9,192.1,223.8,192.1z"/>
	<path class="st3" d="M313.3,162.5c-4.1,0-7.5-3.3-7.5-7.5v-15.1c0-4.1,3.4-7.5,7.5-7.5s7.5,3.4,7.5,7.5V155
		C320.8,159.2,317.5,162.5,313.3,162.5z"/>
	<path class="st0" d="M510,245.6c0,18.5-15,33.5-33.5,33.5c-18.5,0-33.5-15-33.5-33.5c0-18.5,15-33.5,33.5-33.5
		C495,212,510,227.1,510,245.6z"/>
</g>
<path class="st5" d="M452.8,221.9L263.1,411.5c-4.3,4.3-7.8,9.5-10.3,15.1l-21.9,50.9c-3.7,8.6,5,17.3,13.6,13.6l50.9-21.9
	c5.6-2.4,10.8-5.9,15.1-10.2l189.7-189.7L452.8,221.9z"/>
<path class="st0" d="M257.1,418.8c-1.7,2.5-3.1,5.1-4.3,7.9l-21.9,50.9c-3.7,8.6,5,17.3,13.6,13.6l50.9-21.9
	c2.8-1.2,5.4-2.6,7.9-4.3L257.1,418.8z"/>
<path class="st1" d="M306.9,422.6c-1.9,0-3.8-0.7-5.3-2.2c-2.9-2.9-2.9-7.7,0-10.6L444.4,267c2.9-2.9,7.7-2.9,10.6,0
	c2.9,2.9,2.9,7.7,0,10.6L312.2,420.4C310.8,421.9,308.9,422.6,306.9,422.6z"/>
</svg>
