<?xml version="1.0" encoding="utf-8"?>
<!-- Generator: Adobe Illustrator 23.0.3, SVG Export Plug-In . SVG Version: 6.00 Build 0)  -->
<svg version="1.1" id="Capa_1" xmlns="http://www.w3.org/2000/svg" xmlns:xlink="http://www.w3.org/1999/xlink" x="0px" y="0px"
	 viewBox="0 0 511.9 511.9" style="enable-background:new 0 0 511.9 511.9;" xml:space="preserve">
<style type="text/css">
	.st0{fill:#EE1C26;}
</style>
<g>
	<g>
		<g>
			<path class="st0" d="M348,272.8c-4.6,0-8.4,3.8-8.4,8.4v201.4c0,4.6-3.8,8.4-8.4,8.4H29.1c-4.6,0-8.4-3.8-8.4-8.4V29.4
				c0-4.6,3.8-8.4,8.4-8.4h302.2c4.6,0,8.4,3.8,8.4,8.4v50.4c0,4.6,3.8,8.4,8.4,8.4s8.4-3.8,8.4-8.4V29.4
				c0-13.9-11.3-25.2-25.2-25.2H29.1C15.2,4.2,3.9,15.5,3.9,29.4v453.2c0,13.9,11.3,25.2,25.2,25.2h302.2
				c13.9,0,25.2-11.3,25.2-25.2V281.2C356.4,276.5,352.7,272.8,348,272.8z"/>
			<path class="st0" d="M495.8,32.7c-16.3-16.3-42.8-16.4-59.2-0.1l0,0l-55.3,55.3l-289,289c-0.1,0.1-0.1,0.2-0.2,0.3
				c-0.7,0.7-1.2,1.5-1.6,2.4l-0.1,0.1l-35.5,82.8c-1.1,2.6-0.8,5.6,0.7,7.9s4.2,3.8,7,3.8c1.1,0,2.3-0.2,3.3-0.7l82.9-35.5l0.1-0.1
				c0.9-0.4,1.7-0.9,2.4-1.6c0.1-0.1,0.2-0.1,0.3-0.2l289-289l55.3-55.2C512.2,75.5,512.1,49,495.8,32.7z M78.6,449.9l22.5-52.4
				l29.9,29.9L78.6,449.9z M145.7,418.3l-35.6-35.6l277.1-277.1l35.6,35.6L145.7,418.3z M434.7,129.4l-35.6-35.6l13.7-13.7
				l35.6,35.6L434.7,129.4z M484,80.1L484,80.1l-23.8,23.7l-35.6-35.6l23.7-23.7c6.4-6.4,15.6-8.8,24.3-6.5
				c8.7,2.3,15.5,9.1,17.8,17.8C492.9,64.4,490.4,73.7,484,80.1z"/>
			<path class="st0" d="M280.9,79.7H79.4c-4.6,0-8.4,3.8-8.4,8.4s3.8,8.4,8.4,8.4h201.5c4.6,0,8.4-3.8,8.4-8.4
				S285.5,79.7,280.9,79.7z"/>
			<path class="st0" d="M289.3,138.5c0-4.6-3.8-8.4-8.4-8.4H79.4c-4.6,0-8.4,3.8-8.4,8.4s3.8,8.4,8.4,8.4h201.5
				C285.5,146.9,289.3,143.1,289.3,138.5z"/>
			<path class="st0" d="M79.4,180.4c-4.6,0-8.4,3.8-8.4,8.4s3.8,8.4,8.4,8.4h151.1c4.6,0,8.4-3.8,8.4-8.4s-3.8-8.4-8.4-8.4H79.4z"/>
		</g>
	</g>
</g>
</svg>
