<?xml version="1.0" encoding="iso-8859-1"?>
<!-- Generator: Adobe Illustrator 19.0.0, SVG Export Plug-In . SVG Version: 6.00 Build 0)  -->
<svg version="1.1" id="Capa_1" xmlns="http://www.w3.org/2000/svg" xmlns:xlink="http://www.w3.org/1999/xlink" x="0px" y="0px"
	 viewBox="0 0 512 512" style="enable-background:new 0 0 512 512;" xml:space="preserve">
<rect x="101.864" y="322.834" transform="matrix(-0.9397 0.342 -0.342 -0.9397 413.7029 604.4005)" style="fill:#5D6671;" width="103.41" height="31.674"/>
<polygon style="opacity:0.1;enable-background:new    ;" points="167.578,350.429 207.57,335.872 196.737,306.108 147.47,324.04 "/>
<circle style="fill:#F18290;" cx="361.57" cy="213.551" r="36.37"/>
<path style="fill:#7CD9D2;" d="M35.505,421.089l62.209-22.642c11.017-4.01,16.697-16.191,12.687-27.208l-10.833-29.764
	l-82.157,29.903c-13.727,4.996-20.805,20.175-15.809,33.903l0,0C6.599,419.007,21.777,426.085,35.505,421.089z"/>
<path style="opacity:0.1;enable-background:new    ;" d="M1.602,405.28L1.602,405.28c4.997,13.728,20.175,20.805,33.903,15.809
	l34.136-12.425c-25.305-2.248-35.022-22.083-35.429-43.402l-16.801,6.115C3.684,376.374-3.394,391.552,1.602,405.28z"/>
<path style="fill:#D6D8DB;" d="M477.137,300.149L261.265,378.72c-21.792,7.932-46.21,0.77-60.266-17.676l-33.697-44.222
	l332.031-120.85c4.959-1.805,10.247,1.715,10.495,6.987l2.113,44.911C513.031,271.035,498.929,292.217,477.137,300.149z"/>
<circle style="fill:#F18290;" cx="170.99" cy="144.821" r="38.823"/>
<g>
	<path style="fill:#F8D662;" d="M241.025,194.431l25.524,9.29c10.696,3.893,13.014,17.988,4.128,25.102l-20.395,16.327
		c-8.537,6.834-21.279,2.196-23.426-8.526l-5.129-25.617C219.493,199.846,230.329,190.538,241.025,194.431z"/>
	<path style="fill:#F8D662;" d="M396.854,150.161l-28.798-10.482c-12.068-4.392-14.683-20.296-4.658-28.322l23.011-18.422
		c9.632-7.711,24.009-2.478,26.431,9.62l5.786,28.903C421.148,144.052,408.921,154.553,396.854,150.161z"/>
</g>
<g>
	
		<ellipse transform="matrix(-0.342 -0.9397 0.9397 -0.342 82.8201 716.7578)" style="fill:#F18290;" cx="292.355" cy="329.383" rx="19.793" ry="24.855"/>
	
		<ellipse transform="matrix(0.342 0.9397 -0.9397 0.342 541.8863 -207.3013)" style="fill:#F18290;" cx="418.968" cy="283.287" rx="19.793" ry="24.855"/>
</g>
<g>
	<path style="fill:#5D6671;" d="M299.222,313.366c-3.064,0-5.94-1.891-7.049-4.936l-3.003-8.248
		c-1.417-3.892,0.59-8.196,4.482-9.613c3.892-1.42,8.195,0.589,9.613,4.481l3.003,8.248c1.417,3.892-0.59,8.196-4.482,9.613
		C300.939,313.22,300.073,313.366,299.222,313.366z"/>
	<path style="fill:#5D6671;" d="M398.596,277.197c-3.064,0-5.94-1.891-7.049-4.937l-3.002-8.248
		c-1.417-3.892,0.591-8.196,4.482-9.613c3.896-1.418,8.197,0.591,9.613,4.483l3.002,8.248c1.417,3.892-0.591,8.196-4.482,9.613
		C400.314,277.051,399.446,277.197,398.596,277.197z"/>
	<path style="fill:#5D6671;" d="M344.899,302.726c-4.353,0-8.688-1.094-12.587-3.249c-3.625-2.004-4.94-6.567-2.936-10.192
		c2.004-3.624,6.564-4.94,10.192-2.936c2.788,1.541,6.097,1.801,9.08,0.717c2.98-1.086,5.349-3.413,6.494-6.385
		c1.489-3.864,5.83-5.79,9.695-4.301c3.865,1.49,5.791,5.831,4.301,9.695c-2.705,7.019-8.304,12.518-15.36,15.086
		C350.9,302.208,347.896,302.726,344.899,302.726z"/>
</g>
<path style="opacity:0.1;enable-background:new    ;" d="M200.998,361.044c14.056,18.446,38.474,25.608,60.266,17.676l68.402-24.896
	c-31.046-2.953-66.777-35.906-77.57-67.865l-84.795,30.863L200.998,361.044z"/>
<g>
	<path style="fill:#7CD9D2;" d="M282.488,158.678c-4.143,0-7.5-3.358-7.5-7.5c0-11.936,2.406-33.591,18.519-44.529
		c3.424-2.328,8.091-1.434,10.417,1.993c2.327,3.427,1.435,8.091-1.992,10.418c-10.78,7.318-11.944,24.9-11.944,32.119
		C289.988,155.32,286.631,158.678,282.488,158.678z"/>
	<path style="fill:#7CD9D2;" d="M473.396,163.316c-2.13,0-4.244-0.901-5.728-2.654c-3.409-4.027-8.7-12.339-12.395-22.51
		c-4.621-12.727-5.355-24.771-2.124-34.83c1.268-3.945,5.493-6.115,9.435-4.847c3.943,1.267,6.113,5.491,4.847,9.435
		c-5.199,16.182,6.746,37.225,11.686,43.059c2.677,3.162,2.284,7.894-0.878,10.57C476.83,162.733,475.108,163.316,473.396,163.316z"
		/>
</g>
<g style="opacity:0.1;">
	<circle cx="186" cy="139.471" r="7.453"/>
	<circle cx="169.54" cy="162.251" r="7.453"/>
	<circle cx="158.43" cy="134.301" r="7.453"/>
</g>
<g style="opacity:0.1;">
	<circle cx="372.73" cy="201.221" r="7.453"/>
	<circle cx="362.14" cy="224.791" r="7.453"/>
	<circle cx="347.78" cy="204.931" r="7.453"/>
</g>
<g>
</g>
<g>
</g>
<g>
</g>
<g>
</g>
<g>
</g>
<g>
</g>
<g>
</g>
<g>
</g>
<g>
</g>
<g>
</g>
<g>
</g>
<g>
</g>
<g>
</g>
<g>
</g>
<g>
</g>
</svg>
