<?xml version="1.0" encoding="utf-8"?>
<!-- Generator: Adobe Illustrator 23.0.3, SVG Export Plug-In . SVG Version: 6.00 Build 0)  -->
<svg version="1.1" id="Capa_1" xmlns="http://www.w3.org/2000/svg" xmlns:xlink="http://www.w3.org/1999/xlink" x="0px" y="0px"
	 viewBox="0 0 512 512" style="enable-background:new 0 0 512 512;" xml:space="preserve">
<style type="text/css">
	.st0{fill:#FF4949;}
	.st1{fill:#404B58;}
	.st2{opacity:0.1;enable-background:new    ;}
	.st3{fill:#F30051;}
	.st4{fill:#FFC5DD;}
	.st5{fill:#E8EFEF;}
</style>
<path class="st0" d="M488.9,395.3H238.7L124,280.5V30.4c0-12.8,10.4-23.1,23.1-23.1h341.8c12.8,0,23.1,10.4,23.1,23.1v341.8
	C512,385,501.6,395.3,488.9,395.3z"/>
<g>
	<path class="st1" d="M448.3,172.6H187.7c-4.1,0-7.5-3.4-7.5-7.5s3.4-7.5,7.5-7.5h260.6c4.1,0,7.5,3.4,7.5,7.5
		C455.8,169.3,452.4,172.6,448.3,172.6z"/>
	<path class="st1" d="M448.3,220.6H187.7c-4.1,0-7.5-3.4-7.5-7.5s3.4-7.5,7.5-7.5h260.6c4.1,0,7.5,3.4,7.5,7.5
		C455.8,217.2,452.4,220.6,448.3,220.6z"/>
	<path class="st1" d="M448.3,268.5H187.7c-4.1,0-7.5-3.4-7.5-7.5s3.4-7.5,7.5-7.5h260.6c4.1,0,7.5,3.4,7.5,7.5
		C455.8,265.2,452.4,268.5,448.3,268.5z"/>
</g>
<path class="st2" d="M414,138.2H124v142.3l114.8,114.8h198.4v-234C437.1,148.5,426.8,138.2,414,138.2z"/>
<path class="st3" d="M364.9,504.7H114.8L0,389.9V139.8c0-12.8,10.4-23.1,23.1-23.1h341.8c12.8,0,23.1,10.4,23.1,23.1v341.8
	C388,494.4,377.7,504.7,364.9,504.7z"/>
<path class="st2" d="M112.3,421.5c0,17.5,24.9,83.2,50.8,83.2h-48.3l-41.7-57.4L112.3,421.5z"/>
<path class="st4" d="M42.6,393.6C28.3,394,14,392.8,0,389.9l0,0l0,0c0,63.4,51.4,114.8,114.8,114.8l0,0l0,0
	c-2.8-14-4.1-28.3-3.6-42.6l1.4-49.7c0.3-11.1-8.8-20.2-19.9-20L42.6,393.6z"/>
<g>
	<path class="st5" d="M86.5,223.6c-4.1,0-7.5-3.4-7.5-7.5v-18.3c0-4.1,3.4-7.5,7.5-7.5s7.5,3.4,7.5,7.5v18.3
		C94,220.2,90.7,223.6,86.5,223.6z"/>
	<path class="st5" d="M194,261L194,261c-17.1,0-31-13.9-31-31v-22.7c0-4.6,3.7-8.3,8.3-8.3h45.4c4.6,0,8.3,3.7,8.3,8.3v22.7
		C225,247.2,211.1,261,194,261z"/>
	<path class="st5" d="M301.5,223.6c-4.1,0-7.5-3.4-7.5-7.5v-18.3c0-4.1,3.4-7.5,7.5-7.5s7.5,3.4,7.5,7.5v18.3
		C309,220.2,305.7,223.6,301.5,223.6z"/>
	<path class="st5" d="M301.5,318.2h-215c-4.1,0-7.5-3.4-7.5-7.5s3.4-7.5,7.5-7.5h215c4.1,0,7.5,3.4,7.5,7.5
		C309,314.9,305.7,318.2,301.5,318.2z"/>
	<path class="st5" d="M269.4,357.8H118.7c-4.1,0-7.5-3.4-7.5-7.5s3.4-7.5,7.5-7.5h150.7c4.1,0,7.5,3.4,7.5,7.5
		C276.9,354.5,273.5,357.8,269.4,357.8z"/>
</g>
</svg>
