<svg height="512pt" viewBox="0 -71 512.00001 512" width="512pt" xmlns="http://www.w3.org/2000/svg"><path d="m256 0c-87.484375 0-164.550781 44.566406-209.753906 112.234375-13.597656 20.355469-5.070313 48.101563 17.445312 57.714844l52.882813 22.585937c21.101562 9.011719 45.367187 3.433594 60.992187-13.371094 19.554688-21.023437 47.457032-34.179687 78.433594-34.179687 30.980469 0 58.882812 13.15625 78.433594 34.179687 15.625 16.804688 39.894531 22.386719 60.996094 13.371094l52.882812-22.585937c22.511719-9.613281 31.042969-37.359375 17.445312-57.714844-45.207031-67.667969-122.273437-112.234375-209.757812-112.234375zm0 0" fill="#ffbe73"/><path d="m423.929688 64.082031c15.878906 14.199219 29.953124 30.378907 41.824218 48.152344 13.597656 20.355469 5.070313 48.101563-17.445312 57.714844l-52.882813 22.585937c-21.101562 9.011719-45.367187 3.433594-60.992187-13.371094-4.117188-4.421874-8.601563-8.5-13.410156-12.179687zm0 0" fill="#f9ee80"/><path d="m46.246094 112.234375c-13.597656 20.355469-5.070313 48.101563 17.445312 57.714844l52.878906 22.585937c21.105469 9.011719 45.371094 3.433594 60.996094-13.371094 19.554688-21.023437 47.453125-34.179687 78.433594-34.179687v-144.984375c-87.484375 0-164.550781 44.566406-209.753906 112.234375zm0 0" fill="#ff8f71"/><path d="m88.070312 64.082031c-15.878906 14.199219-29.953124 30.378907-41.824218 48.152344-13.597656 20.355469-5.070313 48.101563 17.445312 57.714844l52.882813 22.585937c21.101562 9.011719 45.367187 3.433594 60.992187-13.371094 4.117188-4.421874 8.601563-8.5 13.40625-12.179687zm0 0" fill="#fd5c6f"/><path d="m243.164062 64.90625c-23.898437 70.679688-10.855468 156.417969-10.855468 156.417969h47.382812s13.042969-85.738281-10.855468-156.417969c-4.578126-13.539062-21.09375-13.539062-25.671876 0zm0 0" fill="#6a829a"/><path d="m301.246094 229.625c0 24.988281-20.257813 45.246094-45.246094 45.246094s-45.246094-20.257813-45.246094-45.246094c0-24.992188 20.257813-45.25 45.246094-45.25s45.246094 20.257812 45.246094 45.25zm0 0" fill="#a7b6c5"/><path d="m160.707031 289.996094c0 44.375-35.976562 80.351562-80.355469 80.351562-44.375 0-80.351562-35.976562-80.351562-80.351562 0-44.378906 35.976562-80.355469 80.351562-80.355469 44.378907 0 80.355469 35.976563 80.355469 80.355469zm0 0" fill="#b18cd9"/><path d="m48.835938 289.996094c0-35.863282 23.519531-66.234375 55.953124-76.570313-7.699218-2.453125-15.921874-3.78125-24.4375-3.78125-44.375-.003906-80.351562 35.972657-80.351562 80.351563s35.976562 80.351562 80.351562 80.351562c8.515626 0 16.738282-1.328125 24.4375-3.78125-32.433593-10.339844-55.953124-40.710937-55.953124-76.570312zm0 0" fill="#996acc"/><g fill="#454545"><path d="m129.191406 302.707031c-4.269531 0-7.726562-3.460937-7.726562-7.726562v-12.828125c0-4.265625 3.457031-7.726563 7.726562-7.726563 4.265625 0 7.726563 3.460938 7.726563 7.726563v12.828125c0 4.265625-3.460938 7.726562-7.726563 7.726562zm0 0"/><path d="m31.515625 302.707031c-4.265625 0-7.726563-3.460937-7.726563-7.726562v-12.828125c0-4.265625 3.460938-7.726563 7.726563-7.726563 4.269531 0 7.726563 3.460938 7.726563 7.726563v12.828125c0 4.265625-3.460938 7.726562-7.726563 7.726562zm0 0"/><path d="m85.628906 302.078125c-1.730468-2.542969-4.253906-2.847656-5.277344-2.847656-1.023437 0-3.589843.277343-5.277343 2.847656-2.34375 3.566406-7.132813 4.558594-10.699219 2.214844s-4.558594-7.132813-2.214844-10.699219c4.035156-6.148438 10.835938-9.816406 18.191406-9.816406 7.355469 0 14.15625 3.667968 18.195313 9.816406 2.339844 3.566406 1.347656 8.355469-2.21875 10.699219-1.304687.859375-7.085937 3.082031-10.699219-2.214844zm0 0"/></g><path d="m512 289.996094c0 44.375-35.976562 80.351562-80.351562 80.351562-44.378907 0-80.355469-35.976562-80.355469-80.351562 0-44.378906 35.976562-80.355469 80.355469-80.355469 44.375 0 80.351562 35.976563 80.351562 80.355469zm0 0" fill="#76e7e7"/><path d="m400.132812 289.996094c0-35.863282 23.515626-66.234375 55.953126-76.570313-7.703126-2.453125-15.921876-3.785156-24.4375-3.785156-44.378907 0-80.355469 35.976563-80.355469 80.355469s35.976562 80.351562 80.355469 80.351562c8.515624 0 16.734374-1.328125 24.4375-3.785156-32.433594-10.335938-55.953126-40.707031-55.953126-76.566406zm0 0" fill="#2eddda"/><path d="m480.484375 302.707031c-4.269531 0-7.726563-3.460937-7.726563-7.726562v-12.828125c0-4.265625 3.457032-7.726563 7.726563-7.726563s7.726563 3.460938 7.726563 7.726563v12.828125c0 4.265625-3.457032 7.726562-7.726563 7.726562zm0 0" fill="#454545"/><path d="m382.808594 302.707031c-4.265625 0-7.726563-3.460937-7.726563-7.726562v-12.828125c0-4.265625 3.460938-7.726563 7.726563-7.726563 4.269531 0 7.726562 3.460938 7.726562 7.726563v12.828125c0 4.265625-3.457031 7.726562-7.726562 7.726562zm0 0" fill="#454545"/><path d="m436.925781 287.261719c-1.734375 2.542969-4.253906 2.847656-5.277343 2.847656-1.027344 0-3.589844-.277344-5.277344-2.847656-2.34375-3.566407-7.136719-4.558594-10.703125-2.214844-3.566407 2.339844-4.558594 7.132813-2.214844 10.699219 4.039063 6.144531 10.839844 9.816406 18.195313 9.816406 7.351562 0 14.152343-3.671875 18.191406-9.816406 2.34375-3.566406 1.351562-8.359375-2.214844-10.699219-1.308594-.859375-7.089844-3.085937-10.699219 2.214844zm0 0" fill="#454545"/><path d="m153.550781 129.691406c-6.179687 6.175782-6.179687 16.195313 0 22.371094l25.519531 25.519531c7.410157-7.652343 15.953126-14.203125 25.359376-19.382812l-28.507813-28.507813c-6.179687-6.179687-16.195313-6.179687-22.371094 0zm0 0" fill="#516980"/><path d="m358.449219 129.691406c-6.175781-6.179687-16.191407-6.179687-22.371094 0l-28.507813 28.507813c9.40625 5.179687 17.949219 11.730469 25.359376 19.382812l25.519531-25.519531c6.179687-6.175781 6.179687-16.195312 0-22.371094zm0 0" fill="#516980"/></svg>