<?xml version="1.0" encoding="utf-8"?>
<!-- Generator: Adobe Illustrator 23.0.3, SVG Export Plug-In . SVG Version: 6.00 Build 0)  -->
<svg version="1.1" id="圖層_1" xmlns="http://www.w3.org/2000/svg" xmlns:xlink="http://www.w3.org/1999/xlink" x="0px" y="0px"
	 viewBox="0 0 511 511" style="enable-background:new 0 0 511 511;" xml:space="preserve">
<style type="text/css">
	.st0{fill:#C6C5CA;}
	.st1{fill:#FF4949;}
	.st2{fill:#F30051;}
	.st3{fill:#EAEAEA;}
	.st4{fill:#444346;}
	.st5{fill:#D8D7DA;}
	.st6{fill:#F46262;}
</style>
<path class="st0" d="M231.5,110.9h45.9V162h-45.9V110.9z"/>
<path class="st1" d="M282.2,125.8h-55.3c-13,0-23.5-10.5-23.5-23.5c0-13,10.5-23.5,23.5-23.5h55.3c13,0,23.5,10.5,23.5,23.5
	C305.6,115.3,295.1,125.8,282.2,125.8z"/>
<path class="st2" d="M245.1,102.3c0-13,10.5-23.5,23.5-23.5h-41.7c-13,0-23.5,10.5-23.5,23.5s10.5,23.5,23.5,23.5h41.7
	C255.6,125.8,245.1,115.3,245.1,102.3z"/>
<path class="st3" d="M254.5,149C126.3,149,22.3,252.9,22.3,381.1v26.1h464.3v-26.1C486.7,252.9,382.7,149,254.5,149z"/>
<path class="st4" d="M254.5,255.7c-9.8,0-17.7-7.9-17.7-17.7v-10.2c0-1.7,1.4-3.1,3.1-3.1h29.3c1.7,0,3.1,1.4,3.1,3.1V238
	C272.2,247.8,264.3,255.7,254.5,255.7z"/>
<path class="st5" d="M291,151.8c-11.9-1.9-24.1-2.9-36.5-2.9C126.3,149,22.3,252.9,22.3,381.1v26.1h73v-26.1
	C95.4,265.3,180.2,169.4,291,151.8z"/>
<path class="st1" d="M472.2,433.3H36.8c-7.5,0-14.5-4-18.4-10.4L0.1,392.4c-3-5,0.6-11.2,6.4-11.2h496.1c5.8,0,9.3,6.3,6.4,11.2
	l-18.3,30.5C486.7,429.4,479.8,433.3,472.2,433.3z"/>
<path class="st2" d="M92.6,422.9l-18.3-30.5c-3-5,0.6-11.2,6.4-11.2H6.4c-5.8,0-9.3,6.3-6.4,11.2l18.3,30.5
	c3.9,6.5,10.9,10.4,18.4,10.4H111C103.5,433.3,96.5,429.4,92.6,422.9z"/>
<path class="st4" d="M335.8,223.6c-2.6,0-5.1-1.3-6.5-3.8c-1.9-3.3-5.5-5.4-9.3-5.4c-3.8,0-7.4,2.1-9.3,5.4
	c-2.1,3.6-6.6,4.8-10.2,2.8c-3.6-2.1-4.8-6.6-2.8-10.2c4.6-8,13.1-12.9,22.3-12.9c9.2,0,17.7,5,22.3,12.9c2.1,3.6,0.8,8.2-2.8,10.2
	C338.4,223.2,337.1,223.6,335.8,223.6z"/>
<path class="st4" d="M204.9,223.6c-2.6,0-5.1-1.3-6.5-3.8c-1.9-3.3-5.5-5.4-9.3-5.4c-3.8,0-7.4,2.1-9.3,5.4
	c-2.1,3.6-6.6,4.8-10.2,2.8s-4.8-6.6-2.8-10.2c4.6-8,13.1-12.9,22.3-12.9c9.2,0,17.7,5,22.3,12.9c2.1,3.6,0.8,8.2-2.8,10.2
	C207.4,223.2,206.1,223.6,204.9,223.6z"/>
<g>
	<path class="st6" d="M325.8,255.1h-11.7c-4.1,0-7.5-3.3-7.5-7.5c0-4.1,3.4-7.5,7.5-7.5h11.7c4.1,0,7.5,3.4,7.5,7.5
		C333.3,251.8,330,255.1,325.8,255.1z"/>
	<path class="st6" d="M194.9,255.1h-11.7c-4.1,0-7.5-3.3-7.5-7.5c0-4.1,3.4-7.5,7.5-7.5h11.7c4.1,0,7.5,3.4,7.5,7.5
		C202.3,251.8,199,255.1,194.9,255.1z"/>
</g>
</svg>
