<?xml version="1.0" encoding="utf-8"?>
<!-- Generator: Adobe Illustrator 23.0.3, SVG Export Plug-In . SVG Version: 6.00 Build 0)  -->
<svg version="1.1" id="Capa_1" xmlns="http://www.w3.org/2000/svg" xmlns:xlink="http://www.w3.org/1999/xlink" x="0px" y="0px"
	 viewBox="0 0 512 512" style="enable-background:new 0 0 512 512;" xml:space="preserve">
<style type="text/css">
	.st0{fill:#EE1C26;}
</style>
<g>
	<g>
		<path class="st0" d="M503.9,404.2h-13.6c-0.7-21.7-4.4-43-11-63.5c-7.1-22.3-17.6-43.4-31.1-62.7c-13.3-19-29.3-35.9-47.6-50.3
			c-18.4-14.5-38.8-26.1-60.6-34.4c-24.1-9.3-49.5-14.4-75.5-15.3l23.9-23.9c10.5-10.5,10.5-27.7,0-38.2c-5.1-5.1-11.9-7.9-19.1-7.9
			c-4.8,0-9.4,1.2-13.4,3.5c-4-2.3-8.6-3.5-13.4-3.5c-7.2,0-14,2.8-19.1,7.9c-5.1,5.1-7.9,11.9-7.9,19.1c0,7.2,2.8,14,7.9,19.1
			l23.9,23.9c-16.7,0.6-33.2,2.9-49.3,7c-18.3,4.6-35.9,11.5-52.6,20.4c-3.9,2.1-5.4,7-3.3,10.9c1.4,2.6,4.1,4.3,7.1,4.3
			c1.3,0,2.6-0.3,3.8-0.9c15.5-8.3,31.9-14.7,48.9-19c17.1-4.3,34.8-6.6,52.6-6.7c0.4,0.1,0.8,0.1,1.3,0.1c0.4,0,0.9,0,1.3-0.1
			c26.5,0.2,52.4,5,76.9,14.4c20.3,7.8,39.3,18.6,56.4,32c17,13.4,31.9,29.1,44.3,46.8c12.6,17.9,22.3,37.6,29,58.3
			c6.1,18.9,9.5,38.6,10.2,58.6H37.9c0.5-15,2.6-29.9,6.2-44.3c4.1-16.6,10.1-32.6,18-47.8c7.7-14.9,17.2-28.9,28.1-41.7
			c10.9-12.7,23.2-24.2,36.7-34.1c3.6-2.6,4.4-7.7,1.7-11.3c-1.5-2.1-4-3.3-6.5-3.3c-1.7,0-3.4,0.5-4.8,1.6
			c-14.5,10.6-27.7,23-39.4,36.6c-11.7,13.7-21.9,28.8-30.2,44.8C39.2,321,32.7,338.3,28.3,356c-3.9,15.7-6.1,31.9-6.6,48.2H8.1
			c-4.5,0-8.1,3.6-8.1,8.1c0,22.3,18.1,40.4,40.4,40.4h431.2c22.3,0,40.4-18.1,40.4-40.4C512,407.8,508.4,404.2,503.9,404.2z
			 M256,163.7l-21.1-21.1c-2.1-2.1-3.2-4.8-3.2-7.7s1.1-5.6,3.2-7.7c2.1-2.1,4.8-3.2,7.7-3.2c2.9,0,5.6,1.1,7.7,3.2
			c3.2,3.2,8.3,3.2,11.4,0c2.1-2.1,4.8-3.2,7.7-3.2c2.9,0,5.6,1.1,7.7,3.2c4.2,4.2,4.2,11.1,0,15.4L256,163.7z M471.6,436.6H40.4
			c-10.5,0-19.5-6.8-22.9-16.2h12c0,0,0,0,0.1,0s0,0,0.1,0h452.6c0,0,0,0,0.1,0s0,0,0.1,0h12C491.1,429.8,482.1,436.6,471.6,436.6z"
			/>
	</g>
</g>
<g>
	<g>
		<path class="st0" d="M46.1,137.1c-26.9-26.9-0.4-63.4,0.8-64.9c2.7-3.6,1.9-8.6-1.6-11.3c-3.6-2.7-8.6-2-11.3,1.6
			c-0.4,0.5-9.1,12.2-13.5,28.3c-6.1,22.4-1.2,42.3,14.2,57.7c26.9,26.9,0.4,63.4-0.8,64.9c-2.7,3.6-2,8.6,1.6,11.3
			c1.5,1.1,3.2,1.6,4.8,1.6c2.5,0,4.9-1.1,6.5-3.2c0.4-0.5,9.1-12.2,13.5-28.3C66.4,172.4,61.5,152.5,46.1,137.1z"/>
	</g>
</g>
<g>
	<g>
		<path class="st0" d="M132.4,104.8c-6.6-6.6-8.6-13.4-6.3-20.9c2-6.3,6.3-10.7,6.3-10.7c3.2-3.2,3.2-8.3,0-11.4
			c-3.2-3.2-8.3-3.2-11.4,0c-0.7,0.7-6.8,7-10,16.6c-4.5,13.5-0.9,26.9,10,37.9c6.6,6.6,8.6,13.5,6.3,21.1
			c-1.9,6.3-6.2,10.8-6.3,10.9c-3.1,3.2-3.1,8.3,0.1,11.4c1.6,1.6,3.6,2.3,5.7,2.3c2.1,0,4.2-0.8,5.8-2.4c0.7-0.7,6.8-7.1,10-16.8
			C146.9,129.2,143.3,115.7,132.4,104.8z"/>
	</g>
</g>
<g>
	<g>
		<path class="st0" d="M477.3,148.5c15.4-15.4,20.3-35.3,14.2-57.7C487.1,74.7,478.4,63,478,62.5c-2.7-3.6-7.7-4.3-11.3-1.6
			c-3.6,2.7-4.3,7.7-1.6,11.3c1.1,1.5,27.7,38,0.8,64.9c-15.4,15.4-20.3,35.3-14.2,57.7c4.4,16.1,13.1,27.8,13.5,28.3
			c1.6,2.1,4,3.2,6.5,3.2c1.7,0,3.4-0.5,4.8-1.6c3.6-2.7,4.3-7.7,1.6-11.3C476.9,211.9,450.4,175.4,477.3,148.5z"/>
	</g>
</g>
<g>
	<g>
		<path class="st0" d="M384.8,137.3c-2.4-7.6-0.3-14.5,6.3-21.1c11-11,14.5-24.4,10-37.9c-3.2-9.6-9.3-15.9-10-16.6
			c-3.1-3.1-8.2-3.1-11.4,0c-3.2,3.1-3.2,8.2-0.1,11.4c0,0,4.3,4.5,6.3,10.8c2.3,7.5,0.3,14.4-6.3,20.9c-11,11-14.5,24.5-10,38
			c3.2,9.7,9.3,16.1,10,16.8c1.6,1.6,3.7,2.4,5.7,2.4c2,0,4.1-0.8,5.7-2.3c3.2-3.1,3.2-8.2,0.2-11.4
			C391.1,148.2,386.8,143.6,384.8,137.3z"/>
	</g>
</g>
</svg>
