<?xml version="1.0" encoding="utf-8"?>
<!-- Generator: Adobe Illustrator 23.0.3, SVG Export Plug-In . SVG Version: 6.00 Build 0)  -->
<svg version="1.1" id="spatula" xmlns="http://www.w3.org/2000/svg" xmlns:xlink="http://www.w3.org/1999/xlink" x="0px" y="0px"
	 viewBox="0 0 512 512" style="enable-background:new 0 0 512 512;" xml:space="preserve">
<style type="text/css">
	.st0{fill:#EE1C26;}
</style>
<path class="st0" d="M36.6,146.6c-3,3-3,7.7,0,10.6l91.2,91.2c19.5,19.6,48.9,25.8,74.8,15.9l22.5-8.7l81.2,81.2l-4.7,4.7
	c-1.4,1.4-2.2,3.3-2.2,5.3s0.8,3.8,2.2,5.3l115,115c7,7,16.1,10.4,25.3,10.4s18.3-3.5,25.3-10.4c13.9-13.9,13.9-36.6,0-50.5
	l-115.1-115c-3-3-7.7-3-10.6,0l-4.7,4.7l-81.2-81.2l8.7-22.5c10-25.9,3.7-55.1-15.9-74.8l-91.2-91.2c-3-3-7.7-3-10.6,0L36.6,146.6
	L36.6,146.6z M317.4,346.9l29.4-29.4l109.7,109.6c8.1,8.1,8.1,21.3,0,29.4c-8.1,8.1-21.3,8.1-29.4,0L317.4,346.9z M52.5,151.9
	l99.3-99.3l85.9,85.9c15.3,15.3,20.3,38.5,12.5,58.8l-10.4,27c-1.1,2.7-0.4,5.9,1.6,8l84.6,84.6l-9.4,9.4l-84.6-84.6
	c-2.1-2.1-5.3-2.7-8-1.6l-27,10.4c-20.3,7.8-43.4,3-58.8-12.5L52.5,151.9z"/>
<path class="st0" d="M146.6,86.6c-3,3-3,7.7,0,10.6l80,80c1.4,1.4,3.4,2.2,5.3,2.2c1.9,0,3.8-0.8,5.3-2.2c3-3,3-7.7,0-10.6l-80-80
	C154.3,83.7,149.6,83.7,146.6,86.6z"/>
<path class="st0" d="M207.2,196.6l-80-80c-3-3-7.7-3-10.6,0c-3,3-3,7.7,0,10.6l80,80c1.4,1.4,3.4,2.2,5.3,2.2s3.8-0.8,5.3-2.2
	C210.1,204.3,210.1,199.5,207.2,196.6z"/>
<path class="st0" d="M177.2,237.1c3-3,3-7.7,0-10.6l-80-80c-3-3-7.7-3-10.6,0c-3,3-3,7.7,0,10.6l80,80c1.4,1.4,3.4,2.2,5.3,2.2
	C173.8,239.3,175.8,238.7,177.2,237.1L177.2,237.1z"/>
<path class="st0" d="M344.8,344.8c-3.9,3.9-3.9,10.2,0,14.1s10.2,3.9,14.1,0c3.9-3.9,3.9-10.2,0-14.1
	C355,340.8,348.6,340.8,344.8,344.8z"/>
<path class="st0" d="M369.8,369.8c-3.9,3.9-3.9,10.2,0,14.1s10.2,3.9,14.1,0s3.9-10.2,0-14.1C380,365.8,373.6,365.8,369.8,369.8z"/>
</svg>
