<?xml version="1.0" encoding="utf-8"?>
<!-- Generator: Adobe Illustrator 23.0.3, SVG Export Plug-In . SVG Version: 6.00 Build 0)  -->
<svg version="1.1" id="Capa_1" xmlns="http://www.w3.org/2000/svg" xmlns:xlink="http://www.w3.org/1999/xlink" x="0px" y="0px"
	 viewBox="0 0 512 512" style="enable-background:new 0 0 512 512;" xml:space="preserve">
<style type="text/css">
	.st0{fill:#DCDEDF;}
	.st1{fill:#BDC0C3;}
	.st2{opacity:5.000000e-02;enable-background:new    ;}
	.st3{fill:#FF4949;}
	.st4{fill:#F30051;}
	.st5{fill:#F7CF66;}
	.st6{opacity:0.1;enable-background:new    ;}
</style>
<path class="st0" d="M146.5,290.9L7.4,172.7c-9.4-8-10-22.3-1.3-31L141.8,6.2c8.7-8.7,23-8.1,31,1.3l118.2,139.1
	c12.6,14.8,11.7,36.8-2.1,50.6l-91.8,91.8C183.4,302.6,161.4,303.5,146.5,290.9z"/>
<g>
	<path class="st1" d="M181.4,192l-82.9-82.9c-2.9-2.9-2.9-7.7,0-10.6s7.7-2.9,10.6,0l82.9,82.9c2.9,2.9,2.9,7.7,0,10.6
		c-1.5,1.5-3.4,2.2-5.3,2.2C184.8,194.2,182.9,193.5,181.4,192z"/>
	<path class="st1" d="M219.4,153.6l-79.1-86.8c-2.8-3.1-2.6-7.8,0.5-10.6c3.1-2.8,7.8-2.6,10.6,0.5l79.1,86.8
		c2.8,3.1,2.6,7.8-0.5,10.6c-1.4,1.3-3.2,2-5,2C222.9,156,220.8,155.2,219.4,153.6z"/>
	<path class="st1" d="M143.5,230.4l-86.8-79.1c-3.1-2.8-3.3-7.5-0.5-10.6c2.8-3.1,7.5-3.3,10.6-0.5l86.8,79.1
		c3.1,2.8,3.3,7.5,0.5,10.6c-1.5,1.6-3.5,2.4-5.5,2.4C146.7,232.4,144.9,231.8,143.5,230.4z"/>
</g>
<path class="st2" d="M172.7,7.4c-8-9.4-22.3-10-31-1.3l-39,39c52.3,42,139.1,148,87.7,249c2.4-1.5,4.6-3.2,6.6-5.3l91.8-91.8
	c13.8-13.8,14.6-35.8,2.1-50.6L172.7,7.4z"/>
<path class="st1" d="M220.8,253l79.3,79.3l32.1-32.1L253,220.8c-8.9-8.9-23.2-8.9-32.1,0l0,0C212,229.7,212,244.1,220.8,253z"/>
<path class="st3" d="M274.9,326.6l15.5,15.5l51.7-51.7l-15.5-15.5c-3.4-3.4-8.9-3.4-12.3,0l-39.5,39.5
	C271.5,317.7,271.5,323.2,274.9,326.6z"/>
<path class="st4" d="M423.2,500.7L290.3,367.8c-7.1-7.1-7.1-18.6,0-25.7l51.7-51.7c7.1-7.1,18.6-7.1,25.7,0l132.9,132.9
	c15.1,15.1,15.1,39.6,0,54.7l-22.8,22.8C462.8,515.8,438.3,515.8,423.2,500.7z"/>
<g>
	<circle class="st5" cx="449.1" cy="449.1" r="17.9"/>
	
		<rect x="301.8" y="349.1" transform="matrix(0.7071 -0.7071 0.7071 0.7071 -147.7306 356.6361)" class="st5" width="109.6" height="15"/>
</g>
<path class="st6" d="M466,508.8c4.3-1.9,8.3-4.6,11.8-8.1l22.8-22.8c15.1-15.1,15.1-39.6,0-54.7L367.8,290.3
	c-7.1-7.1-18.6-7.1-25.7,0L328.4,304C414.9,390.5,487.8,448.1,466,508.8z"/>
<path class="st6" d="M318.4,314l23.7-23.7l-15.5-15.5c-3.4-3.4-8.9-3.4-12.3,0l-10.9,10.9C313.2,294.8,318.4,303.2,318.4,314z"/>
</svg>
